<?xml version="1.0" encoding="UTF-8" standalone="no"?>
<!-- Created with Inkscape (http://www.inkscape.org/) -->

<svg
   xmlns:dc="http://purl.org/dc/elements/1.1/"
   xmlns:cc="http://creativecommons.org/ns#"
   xmlns:rdf="http://www.w3.org/1999/02/22-rdf-syntax-ns#"
   xmlns:svg="http://www.w3.org/2000/svg"
   xmlns="http://www.w3.org/2000/svg"
   xmlns:sodipodi="http://sodipodi.sourceforge.net/DTD/sodipodi-0.dtd"
   xmlns:inkscape="http://www.inkscape.org/namespaces/inkscape"
   width="744.09448819"
   height="1052.3622047"
   id="svg2"
   version="1.1"
   inkscape:version="0.48.3.1 r9886"
   sodipodi:docname="font.svg">
  <defs
     id="defs4" />
  <sodipodi:namedview
     id="base"
     pagecolor="#ffffff"
     bordercolor="#666666"
     borderopacity="1.0"
     inkscape:pageopacity="0.0"
     inkscape:pageshadow="2"
     inkscape:zoom="3.959798"
     inkscape:cx="348.16774"
     inkscape:cy="658.71607"
     inkscape:document-units="px"
     inkscape:current-layer="layer1"
     showgrid="false"
     inkscape:window-width="1280"
     inkscape:window-height="752"
     inkscape:window-x="-3"
     inkscape:window-y="-3"
     inkscape:window-maximized="1" />
  <metadata
     id="metadata7">
    <rdf:RDF>
      <cc:Work
         rdf:about="">
        <dc:format>image/svg+xml</dc:format>
        <dc:type
           rdf:resource="http://purl.org/dc/dcmitype/StillImage" />
        <dc:title />
      </cc:Work>
    </rdf:RDF>
  </metadata>
  <g
     inkscape:label="Layer 1"
     inkscape:groupmode="layer"
     id="layer1">
    <flowRoot
       xml:space="preserve"
       id="flowRoot2985"
       style="fill:black;stroke:none;stroke-opacity:1;stroke-width:1px;stroke-linejoin:miter;stroke-linecap:butt;fill-opacity:1;font-family:Sans;font-style:normal;font-weight:normal;font-size:40px;line-height:125%;letter-spacing:0px;word-spacing:0px"><flowRegion
         id="flowRegion2987"><rect
           id="rect2989"
           width="154.28572"
           height="92.14286"
           x="97.14286"
           y="73.790756" /></flowRegion><flowPara
         id="flowPara2991" /></flowRoot>    <text
       xml:space="preserve"
       style="font-size:40px;font-style:normal;font-weight:normal;line-height:125%;letter-spacing:0px;word-spacing:0px;fill:#000000;fill-opacity:1;stroke:none;font-family:Sans"
       x="70.714279"
       y="131.64789"
       id="text2993"
       sodipodi:linespacing="125%"><tspan
         sodipodi:role="line"
         x="70.714279"
         y="131.64789"
         id="tspan3001"
         style="font-size:80px;fill:#cccccc">A B C D E F G</tspan><tspan
         sodipodi:role="line"
         x="70.714279"
         y="231.64789"
         id="tspan3009"
         style="font-size:80px;fill:#cccccc">H I J K L M N Ñ</tspan><tspan
         sodipodi:role="line"
         x="70.714279"
         y="331.64789"
         id="tspan3013"
         style="font-size:80px;fill:#cccccc">O P Q R S T U V</tspan><tspan
         sodipodi:role="line"
         x="70.714279"
         y="431.64789"
         id="tspan3015"
         style="font-size:80px;fill:#cccccc">W X Y Z</tspan><tspan
         sodipodi:role="line"
         x="70.714279"
         y="531.64789"
         id="tspan2997"
         style="font-size:80px;fill:#cccccc">a b c d e f g h</tspan><tspan
         sodipodi:role="line"
         x="70.714279"
         y="631.64789"
         style="font-size:80px;fill:#cccccc"
         id="tspan3033">i j k l m n ñ o</tspan><tspan
         sodipodi:role="line"
         x="70.714279"
         y="731.64789"
         style="font-size:80px;fill:#cccccc"
         id="tspan3035">p q r s t u v w</tspan><tspan
         sodipodi:role="line"
         x="70.714279"
         y="831.64789"
         style="font-size:80px;fill:#cccccc"
         id="tspan3037">x y z</tspan><tspan
         sodipodi:role="line"
         x="70.714279"
         y="931.64789"
         id="tspan2999"
         style="font-size:80px;fill:#cccccc" /></text>
    <path
       style="fill:none;stroke:#000000;stroke-width:1px;stroke-linecap:butt;stroke-linejoin:miter;stroke-opacity:1"
       d="M 76.266517,129.84037 97.732259,74.28198 120.96577,131.10306 82.579971,112.1627 112.88455,112.66778"
       id="path3039"
       inkscape:connector-curvature="0" />
    <path
       style="fill:none;stroke:#000000;stroke-width:1px;stroke-linecap:butt;stroke-linejoin:miter;stroke-opacity:1"
       d="m 161.87695,128.32514 0.25253,-52.527932 18.43529,0.252539 7.82868,2.777919 4.79822,4.545686 0,5.555839 -2.0203,5.808378 -6.31345,4.798224 -22.4759,0 22.22336,1.010157 6.56599,4.29314 3.53553,4.29315 1.01016,5.80838 -1.26269,5.55584 -3.78808,4.79822 -4.54568,3.283 -23.23351,0"
       id="path3060"
       inkscape:connector-curvature="0"
       sodipodi:nodetypes="ccccccccccccccccc" />
    <path
       style="fill:none;stroke:#000000;stroke-width:1px;stroke-linecap:butt;stroke-linejoin:miter;stroke-opacity:1"
       d="m 281.83256,81.858132 -7.07107,-4.293149 -6.31345,-1.767767 -7.57615,0 -6.06091,1.515229 -5.3033,3.282996 -4.29315,4.293148 -3.53554,5.050763 -1.26269,6.313453 -0.25253,8.333755 1.26269,8.08122 2.52538,6.06092 3.53553,5.05076 5.3033,3.53554 6.56599,2.0203 7.82869,0.25254 6.31345,-1.51523 5.3033,-1.76777 3.283,-2.0203"
       id="path2998"
       inkscape:connector-curvature="0" />
    <path
       style="fill:none;stroke:#000000;stroke-width:1px;stroke-linecap:butt;stroke-linejoin:miter;stroke-opacity:1"
       d="m 324.76404,127.82007 -0.25254,-51.517777 19.44544,0.505076 8.83883,2.777919 6.06092,4.293149 3.53553,4.798224 2.27285,6.81853 0.75761,7.828679 -1.26269,7.82869 -3.53553,7.82868 -5.3033,5.80837 -7.57615,3.03046 -5.05076,0.75762 -15.40483,-0.25254"
       id="path3000"
       inkscape:connector-curvature="0" />
    <path
       style="fill:none;stroke:#000000;stroke-width:1px;stroke-linecap:butt;stroke-linejoin:miter;stroke-opacity:1"
       d="m 442.69935,76.554831 -30.55711,0 -0.25254,51.770319 30.55711,0 -30.55711,-28.03173 29.29442,0.50507"
       id="path3002"
       inkscape:connector-curvature="0" />
    <path
       style="fill:none;stroke:#000000;stroke-width:1px;stroke-linecap:butt;stroke-linejoin:miter;stroke-opacity:1"
       d="m 487.65114,129.58784 0,-52.527933 27.52665,-0.505076 -28.03173,24.496199 25.75889,-0.25254"
       id="path3004"
       inkscape:connector-curvature="0" />
    <path
       style="fill:none;stroke:#000000;stroke-width:1px;stroke-linecap:butt;stroke-linejoin:miter;stroke-opacity:1"
       d="m 598.51538,80.97425 -7.07107,-4.29315 -6.31345,-1.76777 -7.57615,0 -6.06091,1.51523 -5.3033,3.283 -4.29315,4.29315 -3.53554,5.050763 -1.26269,6.31345 -0.25253,8.333757 1.26269,8.08122 2.52538,6.06092 3.53553,5.05076 5.3033,3.53554 6.56599,2.0203 7.82869,0.25254 6.31345,-1.51523 5.3033,-1.76777 3.283,-2.0203 -0.25254,-18.8141 -13.8896,-0.25253"
       id="path2998-9"
       inkscape:connector-curvature="0" />
    <path
       style="fill:none;stroke:#000000;stroke-width:1px;stroke-linecap:butt;stroke-linejoin:miter;stroke-opacity:1"
       d="m 82.074894,229.08786 0.252538,-54.04316 -0.252538,25.50635 37.123106,0 0.25254,-25.75888 -0.25254,55.30585"
       id="path3035"
       inkscape:connector-curvature="0" />
    <path
       style="fill:none;stroke:#000000;stroke-width:1px;stroke-linecap:butt;stroke-linejoin:miter;stroke-opacity:1"
       d="m 167.93786,174.53963 -0.25254,55.55839"
       id="path3037"
       inkscape:connector-curvature="0" />
    <path
       style="fill:none;stroke:#000000;stroke-width:1px;stroke-linecap:butt;stroke-linejoin:miter;stroke-opacity:1"
       d="m 217.1828,174.53963 0,56.56854 -1.51523,6.06091 -2.52538,4.54569 -4.79823,2.27284 -6.81853,0.25254"
       id="path3040"
       inkscape:connector-curvature="0" />
    <path
       style="fill:none;stroke:#000000;stroke-width:1px;stroke-linecap:butt;stroke-linejoin:miter;stroke-opacity:1"
       d="m 266.17519,174.53963 0.50508,56.06346 0.50508,-27.77919 33.58757,-28.03173 -30.30458,26.01142 30.55712,29.04189"
       id="path3042"
       inkscape:connector-curvature="0"
       sodipodi:nodetypes="cccccc" />
    <path
       style="fill:none;stroke:#000000;stroke-width:1px;stroke-linecap:butt;stroke-linejoin:miter;stroke-opacity:1"
       d="m 344.46202,174.28709 0.25253,54.54824 29.7995,0"
       id="path3044"
       inkscape:connector-curvature="0" />
    <path
       style="fill:none;stroke:#000000;stroke-width:1px;stroke-linecap:butt;stroke-linejoin:miter;stroke-opacity:1"
       d="m 414.41508,230.09802 1.76777,-55.81093 20.96066,43.18402 20.20305,-42.67894 1.76777,55.55838"
       id="path3046"
       inkscape:connector-curvature="0" />
    <path
       style="fill:none;stroke:#000000;stroke-width:1px;stroke-linecap:butt;stroke-linejoin:miter;stroke-opacity:1"
       d="m 508.6118,230.60309 1.01016,-55.30585 34.34518,54.54824 0.25254,-54.80078"
       id="path3048"
       inkscape:connector-curvature="0" />
    <path
       style="fill:none;stroke:#000000;stroke-width:1px;stroke-linecap:butt;stroke-linejoin:miter;stroke-opacity:1"
       d="m 593.84342,230.6031 1.01016,-55.30585 34.34518,54.54824 0.25254,-54.80078 -30.68338,-10.85915 26.5165,0.25254"
       id="path3048-8"
       inkscape:connector-curvature="0" />
    <path
       style="fill:none;stroke:#000000;stroke-width:1px;stroke-linecap:butt;stroke-linejoin:miter;stroke-opacity:1"
       d="m 102.53048,330.10312 -9.596446,-2.02031 -8.081221,-6.56599 -4.04061,-9.59645 -1.767767,-9.09137 0.757615,-6.31345 2.525381,-8.83884 5.808377,-7.82868 8.838835,-3.03046 12.121826,-0.50507 9.34392,5.55583 6.06091,10.10153 0.75761,11.36422 -1.51522,8.58629 -2.52539,7.57615 -5.05076,6.06091 -6.06091,3.283 -5.3033,1.26269"
       id="path3070"
       inkscape:connector-curvature="0" />
    <path
       style="fill:none;stroke:#000000;stroke-width:1px;stroke-linecap:butt;stroke-linejoin:miter;stroke-opacity:1"
       d="m 170.71578,330.35566 0.50508,-54.2957 17.17259,0.25254 6.06091,2.0203 4.04061,4.29315 2.02031,5.80838 0,5.3033 -1.76777,4.79822 -2.77792,3.53553 -4.29315,2.52539 -4.04061,0.75761 -15.9099,0"
       id="path3072"
       inkscape:connector-curvature="0" />
    <path
       style="fill:none;stroke:#000000;stroke-width:1px;stroke-linecap:butt;stroke-linejoin:miter;stroke-opacity:1"
       d="m 269.45819,329.59804 -7.32361,0.50508 -9.34391,-3.283 -6.81853,-6.56599 -3.53553,-7.57614 -0.75762,-7.07107 0.25254,-8.83884 2.52538,-8.08122 4.54569,-7.07106 4.79823,-4.29315 8.58629,-2.27285 8.08122,1.01016 8.08122,4.04061 3.78807,5.3033 3.53554,6.81853 1.26269,6.31345 0,7.32361 -1.51523,6.31345 -3.03046,8.08122 -5.3033,5.55584 -6.06091,3.53553 -5.86341,-7.46141 13.43955,18.32055"
       id="path3074"
       inkscape:connector-curvature="0"
       sodipodi:nodetypes="ccccccccccccccccccccccc" />
    <path
       style="fill:none;stroke:#000000;stroke-width:1px;stroke-linecap:butt;stroke-linejoin:miter;stroke-opacity:1"
       d="m 332.34019,330.35566 1.01015,-54.2957 19.44543,0.50507 5.80838,3.78808 3.283,5.80837 0.50507,6.06092 -2.77792,5.80837 -6.06091,4.29316 -20.45559,0.75761 14.89975,0 15.9099,25.75889"
       id="path3076"
       inkscape:connector-curvature="0"
       sodipodi:nodetypes="ccccccccccc" />
    <path
       style="fill:none;stroke:#000000;stroke-width:1px;stroke-linecap:butt;stroke-linejoin:miter;stroke-opacity:1"
       d="m 444.46712,279.09041 -7.07107,-2.77791 -6.31345,-1.2627 -8.08122,0.50508 -5.80838,2.77792 -3.78807,4.79822 -1.76777,6.566 2.0203,6.06091 6.31346,4.04061 5.55584,1.26269 7.57614,1.51523 6.06092,3.283 4.29314,4.04061 1.26269,6.06091 -1.01015,5.3033 -4.54568,5.55584 -6.06092,2.52538 -6.06091,0.75762 -5.80838,-0.75762 -7.82868,-1.76776 -4.54569,-1.76777"
       id="path3078"
       inkscape:connector-curvature="0" />
    <path
       style="fill:none;stroke:#000000;stroke-width:1px;stroke-linecap:butt;stroke-linejoin:miter;stroke-opacity:1"
       d="m 479.31738,276.56503 47.47717,0.25254 -24.24366,0.50508 0.50507,53.28554"
       id="path3080"
       inkscape:connector-curvature="0" />
    <path
       style="fill:none;stroke:#000000;stroke-width:1px;stroke-linecap:butt;stroke-linejoin:miter;stroke-opacity:1"
       d="m 563.91765,274.29219 0.50508,41.92133 2.27284,6.56599 3.78808,4.04061 4.79822,2.52538 6.06092,0.50508 8.08122,-0.75761 7.57614,-4.29315 3.03046,-6.31346 1.01015,-7.07106 -0.50508,-37.37565"
       id="path3082"
       inkscape:connector-curvature="0" />
    <path
       style="fill:none;stroke:#000000;stroke-width:1px;stroke-linecap:butt;stroke-linejoin:miter;stroke-opacity:1"
       d="m 642.20448,274.79727 21.46574,54.2957 22.98097,-54.80078"
       id="path3084"
       inkscape:connector-curvature="0" />
    <path
       style="fill:none;stroke:#000000;stroke-width:1px;stroke-linecap:butt;stroke-linejoin:miter;stroke-opacity:1"
       d="m 77.276669,374.04475 15.909903,55.55839 17.172588,-54.04316 16.41498,53.53809 15.65737,-55.05332"
       id="path3086"
       inkscape:connector-curvature="0" />
    <path
       style="fill:none;stroke:#000000;stroke-width:1px;stroke-linecap:butt;stroke-linejoin:miter;stroke-opacity:1"
       d="m 183.84776,374.04475 40.15357,57.32616 -42.17387,-0.50508 39.64848,-57.57869"
       id="path3088"
       inkscape:connector-curvature="0" />
    <path
       style="fill:none;stroke:#000000;stroke-width:1px;stroke-linecap:butt;stroke-linejoin:miter;stroke-opacity:1"
       d="m 260.11428,374.04475 19.69797,29.29443 20.20305,-29.29443 -20.20305,29.04189 -0.25254,27.77919"
       id="path3090"
       inkscape:connector-curvature="0" />
    <path
       style="fill:none;stroke:#000000;stroke-width:1px;stroke-linecap:butt;stroke-linejoin:miter;stroke-opacity:1"
       d="m 334.61303,376.3176 42.67894,0 -40.15356,52.02285 42.42641,0"
       id="path3092"
       inkscape:connector-curvature="0" />
  </g>
</svg>
