<?xml version="1.0" encoding="UTF-8" standalone="no"?>
<!-- Created with Inkscape (http://www.inkscape.org/) -->

<svg
   xmlns:dc="http://purl.org/dc/elements/1.1/"
   xmlns:cc="http://creativecommons.org/ns#"
   xmlns:rdf="http://www.w3.org/1999/02/22-rdf-syntax-ns#"
   xmlns:svg="http://www.w3.org/2000/svg"
   xmlns="http://www.w3.org/2000/svg"
   xmlns:sodipodi="http://sodipodi.sourceforge.net/DTD/sodipodi-0.dtd"
   xmlns:inkscape="http://www.inkscape.org/namespaces/inkscape"
   width="744.09448819"
   height="1052.3622047"
   id="svg2"
   version="1.1"
   inkscape:version="0.48.3.1 r9886"
   sodipodi:docname="font.svg">
  <defs
     id="defs64" />
  <sodipodi:namedview
     id="base"
     pagecolor="#ffffff"
     bordercolor="#666666"
     borderopacity="1.0"
     inkscape:pageopacity="0.0"
     inkscape:pageshadow="2"
     inkscape:zoom="3.959798"
     inkscape:cx="177.62851"
     inkscape:cy="444.70587"
     inkscape:document-units="px"
     inkscape:current-layer="layer1"
     showgrid="false"
     inkscape:window-width="1280"
     inkscape:window-height="752"
     inkscape:window-x="-3"
     inkscape:window-y="-3"
     inkscape:window-maximized="1" />
  <metadata
     id="metadata7">
    <rdf:RDF>
      <cc:Work
         rdf:about="">
        <dc:format>image/svg+xml</dc:format>
        <dc:type
           rdf:resource="http://purl.org/dc/dcmitype/StillImage" />
        <dc:title />
      </cc:Work>
    </rdf:RDF>
  </metadata>
  <g
     inkscape:label="Layer 1"
     inkscape:groupmode="layer"
     id="layer1">
    <flowRoot
       xml:space="preserve"
       id="flowRoot2985"
       style="fill:black;stroke:none;stroke-opacity:1;stroke-width:1px;stroke-linejoin:miter;stroke-linecap:butt;fill-opacity:1;font-family:Sans;font-style:normal;font-weight:normal;font-size:40px;line-height:125%;letter-spacing:0px;word-spacing:0px"><flowRegion
         id="flowRegion2987"><rect
           id="rect2989"
           width="154.28572"
           height="92.14286"
           x="97.14286"
           y="73.790756" /></flowRegion><flowPara
         id="flowPara2991" /></flowRoot>    <path
       style="fill:none;stroke:#000000;stroke-width:1px;stroke-linecap:butt;stroke-linejoin:miter;stroke-opacity:1;marker-start:none;marker-mid:none"
       d="m 76.266517,129.84037 21.465742,-55.55839 23.233511,56.82108 m 0,0 -33.028656,-29.2975 20.840296,0.32651"
       id="path3039"
       inkscape:connector-curvature="0"
       sodipodi:nodetypes="cccccc" />
    <path
       style="fill:none;stroke:#000000;stroke-width:1px;stroke-linecap:butt;stroke-linejoin:miter;stroke-opacity:1"
       d="m 161.87695,128.32514 0.25253,-52.527932 18.43529,0.252539 7.82868,2.777919 4.79822,4.545686 0,5.555839 -2.0203,5.808378 -6.31345,4.798224 -22.4759,0 22.22336,1.010157 6.56599,4.29314 3.53553,4.29315 1.01016,5.80838 -1.26269,5.55584 -3.78808,4.79822 -4.54568,3.283 -23.23351,0"
       id="path3060"
       inkscape:connector-curvature="0"
       sodipodi:nodetypes="ccccccccccccccccc" />
    <path
       style="fill:none;stroke:#000000;stroke-width:1px;stroke-linecap:butt;stroke-linejoin:miter;stroke-opacity:1"
       d="m 281.83256,81.858132 -7.07107,-4.293149 -6.31345,-1.767767 -7.57615,0 -6.06091,1.515229 -5.3033,3.282996 -4.29315,4.293148 -3.53554,5.050763 -1.26269,6.313453 -0.25253,8.333755 1.26269,8.08122 2.52538,6.06092 3.53553,5.05076 5.3033,3.53554 6.56599,2.0203 7.82869,0.25254 6.31345,-1.51523 5.3033,-1.76777 3.283,-2.0203"
       id="path2998"
       inkscape:connector-curvature="0"
       sodipodi:nodetypes="ccccccccccccccccccc" />
    <path
       style="fill:none;stroke:#000000;stroke-width:1px;stroke-linecap:butt;stroke-linejoin:miter;stroke-opacity:1"
       d="m 324.76404,127.82007 -0.25254,-51.517777 19.44544,0.505076 8.83883,2.777919 6.06092,4.293149 3.53553,4.798224 2.27285,6.81853 0.75761,7.828679 -1.26269,7.82869 -3.53553,7.82868 -5.3033,5.80837 -7.57615,3.03046 -5.05076,0.75762 -15.40483,-0.25254"
       id="path3000"
       inkscape:connector-curvature="0"
       sodipodi:nodetypes="cccccccccccccc" />
    <path
       style="fill:none;stroke:#000000;stroke-width:1px;stroke-linecap:butt;stroke-linejoin:miter;stroke-opacity:1"
       d="m 442.69935,76.554831 -30.55711,0 -0.25254,51.770319 30.55711,0 m 0,0 -30.55711,-28.03173 29.29442,0.50507"
       id="path3002"
       inkscape:connector-curvature="0"
       sodipodi:nodetypes="ccccccc" />
    <path
       style="fill:none;stroke:#000000;stroke-width:1px;stroke-linecap:butt;stroke-linejoin:miter;stroke-opacity:1"
       d="m 487.65114,129.58784 0,-52.527933 27.52665,-0.505076 m 0,0 -28.03173,24.496199 25.75889,-0.25254"
       id="path3004"
       inkscape:connector-curvature="0"
       sodipodi:nodetypes="cccccc" />
    <path
       style="fill:none;stroke:#000000;stroke-width:1px;stroke-linecap:butt;stroke-linejoin:miter;stroke-opacity:1"
       d="m 598.51538,80.97425 -7.07107,-4.29315 -6.31345,-1.76777 -7.57615,0 -6.06091,1.51523 -5.3033,3.283 -4.29315,4.29315 -3.53554,5.050763 -1.26269,6.31345 -0.25253,8.333757 1.26269,8.08122 2.52538,6.06092 3.53553,5.05076 5.3033,3.53554 6.56599,2.0203 7.82869,0.25254 6.31345,-1.51523 5.3033,-1.76777 3.283,-2.0203 -0.25254,-18.8141 -13.8896,-0.25253"
       id="path2998-9"
       inkscape:connector-curvature="0"
       sodipodi:nodetypes="ccccccccccccccccccccc" />
    <path
       style="fill:none;stroke:#000000;stroke-width:1px;stroke-linecap:butt;stroke-linejoin:miter;stroke-opacity:1"
       d="m 82.074894,229.08786 0.252538,-54.04316 -0.252538,25.50635 37.123106,0 0.25254,-25.75888 -0.25254,55.30585"
       id="path3035"
       inkscape:connector-curvature="0"
       sodipodi:nodetypes="cccccc" />
    <path
       style="fill:none;stroke:#000000;stroke-width:1px;stroke-linecap:butt;stroke-linejoin:miter;stroke-opacity:1"
       d="m 167.93786,174.53963 -0.25254,55.55839"
       id="path3037"
       inkscape:connector-curvature="0"
       sodipodi:nodetypes="cc" />
    <path
       style="fill:none;stroke:#000000;stroke-width:1px;stroke-linecap:butt;stroke-linejoin:miter;stroke-opacity:1"
       d="m 217.1828,174.53963 0,56.56854 -1.51523,6.06091 -2.52538,4.54569 -4.79823,2.27284 -6.81853,0.25254"
       id="path3040"
       inkscape:connector-curvature="0"
       sodipodi:nodetypes="cccccc" />
    <path
       style="fill:none;stroke:#000000;stroke-width:1px;stroke-linecap:butt;stroke-linejoin:miter;stroke-opacity:1"
       d="m 266.17519,174.53963 0.50508,56.06346 0.50508,-27.77919 33.58757,-28.03173 -30.30458,26.01142 30.55712,29.04189"
       id="path3042"
       inkscape:connector-curvature="0"
       sodipodi:nodetypes="cccccc" />
    <path
       style="fill:none;stroke:#000000;stroke-width:1px;stroke-linecap:butt;stroke-linejoin:miter;stroke-opacity:1"
       d="m 344.46202,174.28709 0.25253,54.54824 29.7995,0"
       id="path3044"
       inkscape:connector-curvature="0"
       sodipodi:nodetypes="ccc" />
    <path
       style="fill:none;stroke:#000000;stroke-width:1px;stroke-linecap:butt;stroke-linejoin:miter;stroke-opacity:1"
       d="m 414.41508,230.09802 1.76777,-55.81093 20.96066,43.18402 20.20305,-42.67894 1.76777,55.55838"
       id="path3046"
       inkscape:connector-curvature="0"
       sodipodi:nodetypes="ccccc" />
    <path
       style="fill:none;stroke:#000000;stroke-width:1px;stroke-linecap:butt;stroke-linejoin:miter;stroke-opacity:1"
       d="m 508.6118,230.60309 1.01016,-55.30585 34.34518,54.54824 0.25254,-54.80078"
       id="path3048"
       inkscape:connector-curvature="0"
       sodipodi:nodetypes="cccc" />
    <path
       style="fill:none;stroke:#000000;stroke-width:1px;stroke-linecap:butt;stroke-linejoin:miter;stroke-opacity:1"
       d="m 593.84342,230.6031 1.01016,-55.30585 34.34518,54.54824 0.25254,-54.80078 m 0,0 -30.68338,-10.85915 26.5165,0.25254"
       id="path3048-8"
       inkscape:connector-curvature="0"
       sodipodi:nodetypes="ccccccc" />
    <path
       style="fill:none;stroke:#000000;stroke-width:1px;stroke-linecap:butt;stroke-linejoin:miter;stroke-opacity:1"
       d="m 102.53048,330.10312 -9.596446,-2.02031 -8.081221,-6.56599 -4.04061,-9.59645 -1.767767,-9.09137 0.757615,-6.31345 2.525381,-8.83884 5.808377,-7.82868 8.838835,-3.03046 12.121826,-0.50507 9.34392,5.55583 6.06091,10.10153 0.75761,11.36422 -1.51522,8.58629 -2.52539,7.57615 -5.05076,6.06091 -6.06091,3.283 -5.3033,1.26269"
       id="path3070"
       inkscape:connector-curvature="0"
       sodipodi:nodetypes="cccccccccccccccccc" />
    <path
       style="fill:none;stroke:#000000;stroke-width:1px;stroke-linecap:butt;stroke-linejoin:miter;stroke-opacity:1"
       d="m 170.71578,330.35566 0.50508,-54.2957 17.17259,0.25254 6.06091,2.0203 4.04061,4.29315 2.02031,5.80838 0,5.3033 -1.76777,4.79822 -2.77792,3.53553 -4.29315,2.52539 -4.04061,0.75761 -15.9099,0"
       id="path3072"
       inkscape:connector-curvature="0"
       sodipodi:nodetypes="cccccccccccc" />
    <path
       style="fill:none;stroke:#000000;stroke-width:1px;stroke-linecap:butt;stroke-linejoin:miter;stroke-opacity:1"
       d="m 269.45819,329.59804 -7.32361,0.50508 -9.34391,-3.283 -6.81853,-6.56599 -3.53553,-7.57614 -0.75762,-7.07107 0.25254,-8.83884 2.52538,-8.08122 4.54569,-7.07106 4.79823,-4.29315 8.58629,-2.27285 8.08122,1.01016 8.08122,4.04061 3.78807,5.3033 3.53554,6.81853 1.26269,6.31345 0,7.32361 -1.51523,6.31345 -3.03046,8.08122 -5.3033,5.55584 -6.06091,3.53553 -5.86341,-7.46141 13.43955,18.32055"
       id="path3074"
       inkscape:connector-curvature="0"
       sodipodi:nodetypes="ccccccccccccccccccccccc" />
    <path
       style="fill:none;stroke:#000000;stroke-width:1px;stroke-linecap:butt;stroke-linejoin:miter;stroke-opacity:1"
       d="m 332.34019,330.35566 1.01015,-54.2957 19.44543,0.50507 5.80838,3.78808 3.283,5.80837 0.50507,6.06092 -2.77792,5.80837 -6.06091,4.29316 -20.45559,0.75761 14.89975,0 15.9099,25.75889"
       id="path3076"
       inkscape:connector-curvature="0"
       sodipodi:nodetypes="ccccccccccc" />
    <path
       style="fill:none;stroke:#000000;stroke-width:1px;stroke-linecap:butt;stroke-linejoin:miter;stroke-opacity:1"
       d="m 444.46712,279.09041 -7.07107,-2.77791 -6.31345,-1.2627 -8.08122,0.50508 -5.80838,2.77792 -3.78807,4.79822 -1.76777,6.566 2.0203,6.06091 6.31346,4.04061 5.55584,1.26269 7.57614,1.51523 6.06092,3.283 4.29314,4.04061 1.26269,6.06091 -1.01015,5.3033 -4.54568,5.55584 -6.06092,2.52538 -6.06091,0.75762 -5.80838,-0.75762 -7.82868,-1.76776 -4.54569,-1.76777"
       id="path3078"
       inkscape:connector-curvature="0"
       sodipodi:nodetypes="ccccccccccccccccccccc" />
    <path
       style="fill:none;stroke:#000000;stroke-width:1px;stroke-linecap:butt;stroke-linejoin:miter;stroke-opacity:1"
       d="m 479.31738,276.56503 47.47717,0.25254 -24.24366,0.50508 0.50507,53.28554"
       id="path3080"
       inkscape:connector-curvature="0"
       sodipodi:nodetypes="cccc" />
    <path
       style="fill:none;stroke:#000000;stroke-width:1px;stroke-linecap:butt;stroke-linejoin:miter;stroke-opacity:1"
       d="m 563.91765,274.29219 0.50508,41.92133 2.27284,6.56599 3.78808,4.04061 4.79822,2.52538 6.06092,0.50508 8.08122,-0.75761 7.57614,-4.29315 3.03046,-6.31346 1.01015,-7.07106 -0.50508,-37.37565"
       id="path3082"
       inkscape:connector-curvature="0"
       sodipodi:nodetypes="ccccccccccc" />
    <path
       style="fill:none;stroke:#000000;stroke-width:1px;stroke-linecap:butt;stroke-linejoin:miter;stroke-opacity:1"
       d="m 642.20448,274.79727 21.46574,54.2957 22.98097,-54.80078"
       id="path3084"
       inkscape:connector-curvature="0"
       sodipodi:nodetypes="ccc" />
    <path
       style="fill:none;stroke:#000000;stroke-width:1px;stroke-linecap:butt;stroke-linejoin:miter;stroke-opacity:1"
       d="m 77.276669,374.04475 15.909903,55.55839 17.172588,-54.04316 16.41498,53.53809 15.65737,-55.05332"
       id="path3086"
       inkscape:connector-curvature="0"
       sodipodi:nodetypes="ccccc" />
    <path
       style="fill:none;stroke:#000000;stroke-width:1px;stroke-linecap:butt;stroke-linejoin:miter;stroke-opacity:1"
       d="m 183.84776,374.04475 40.15357,57.32616 m 0,0 -42.17387,-0.50508 39.64848,-57.57869"
       id="path3088"
       inkscape:connector-curvature="0"
       sodipodi:nodetypes="ccccc" />
    <path
       style="fill:none;stroke:#000000;stroke-width:1px;stroke-linecap:butt;stroke-linejoin:miter;stroke-opacity:1"
       d="m 260.11428,374.04475 19.69797,29.29443 20.20305,-29.29443 -20.20305,29.04189 -0.25254,27.77919"
       id="path3090"
       inkscape:connector-curvature="0"
       sodipodi:nodetypes="ccccc" />
    <path
       style="fill:none;stroke:#000000;stroke-width:1px;stroke-linecap:butt;stroke-linejoin:miter;stroke-opacity:1"
       d="m 334.61303,376.3176 42.67894,0 -40.15356,52.02285 42.42641,0"
       id="path3092"
       inkscape:connector-curvature="0"
       sodipodi:nodetypes="cccc" />
    <path
       style="fill:none;stroke:#000000;stroke-width:1px;stroke-linecap:butt;stroke-linejoin:miter;stroke-opacity:1"
       d="m 80.054589,492.48514 6.922934,-2.29637 6.922934,-1.03367 8.219223,2.56299 4.68368,5.08838 2.13029,15.88625 0.42028,18.57464 -0.22938,-11.94969 -9.175134,8.08463 -10.30538,3.56887 -7.895648,-4.35327 -2.730279,-10.71472 3.620683,-6.64741 17.126486,-3.60791 8.194672,0.97939"
       id="path3094"
       inkscape:connector-curvature="0"
       sodipodi:nodetypes="ccccccccccccccc" />
    <path
       style="fill:none;stroke:#000000;stroke-width:1px;stroke-linecap:butt;stroke-linejoin:miter;stroke-opacity:1"
       d="m 156.06857,471.65074 0.34547,32.54338 0.28587,26.92935 0.17509,-30.547 6.69643,-7.23214 8.57143,-3.30357 7.76785,1.51785 5.44643,6.33929 2.41072,7.58929 -0.44643,7.85714 -1.875,8.21428 -4.10715,5.44643 -6.07142,3.125 -7.14286,-0.71428 -4.10714,-2.67857 -4.46429,-4.91072 -2.5,-2.85714"
       id="path3167"
       inkscape:connector-curvature="0"
       sodipodi:nodetypes="ccccccccccccccccc" />
    <path
       style="fill:none;stroke:#000000;stroke-width:1px;stroke-linecap:butt;stroke-linejoin:miter;stroke-opacity:1"
       d="m 260.36682,527.58794 -5.17703,1.51523 -6.06092,1.13642 -6.43972,-1.01015 -6.31346,-3.53554 -5.6821,-5.68211 -1.6415,-7.07106 0.63134,-6.69226 2.27285,-7.19734 3.28299,-4.54569 7.57615,-3.91434 5.80837,-1.01015 5.93465,0.75761 5.42957,2.39912"
       id="path3177"
       inkscape:connector-curvature="0"
       sodipodi:nodetypes="cccccccccccccc" />
    <path
       style="fill:none;stroke:#000000;stroke-width:1px;stroke-linecap:butt;stroke-linejoin:miter;stroke-opacity:1"
       d="m 331.33003,530.87093 -0.3788,-59.34646 0.12626,31.56727 -4.54568,-6.18718 -6.31346,-5.80838 -6.18718,-1.01015 -5.68211,1.01015 -5.68211,4.41942 -3.03045,7.44987 -0.37881,7.19734 0.88388,8.08122 2.27285,5.17703 4.16688,4.54569 5.05076,1.51522 5.80838,0.12627 5.6821,-2.52538 3.15673,-3.6618 2.14657,-3.78807 2.65165,-4.9245"
       id="path3179"
       inkscape:connector-curvature="0"
       sodipodi:nodetypes="ccccccccccccccccccc" />
    <path
       style="fill:none;stroke:#000000;stroke-width:1px;stroke-linecap:butt;stroke-linejoin:miter;stroke-opacity:1"
       d="m 374.38778,508.77385 34.724,0.25254 -0.37881,-4.41942 -1.6415,-5.68211 -2.0203,-3.53553 -4.16688,-3.66181 -4.04061,-1.26269 -6.43972,-0.3788 -5.42957,1.38896 -4.54569,2.65165 -2.52538,3.6618 -2.14658,4.41942 -0.88388,3.78807 -0.50508,4.92449 1.01016,4.9245 1.89403,4.41941 3.66181,4.9245 3.91434,2.52538 5.3033,1.89403 4.29315,0.25254 5.05076,-0.25254 4.92449,-1.13642 5.42957,-2.0203"
       id="path3181"
       inkscape:connector-curvature="0"
       sodipodi:nodetypes="ccccccccccccccccccccccc" />
    <path
       style="fill:none;stroke:#000000;stroke-width:1px;stroke-linecap:butt;stroke-linejoin:miter;stroke-opacity:1"
       d="m 454.44237,531.12347 -0.25253,-49.62374 0.88388,-2.77792 2.0203,-2.52538 4.16688,-1.76777 3.66181,-0.50507 6.31345,0 m 0,0 -26.89531,16.41497 25.25381,0.12627"
       id="path3183"
       inkscape:connector-curvature="0"
       sodipodi:nodetypes="cccccccccc" />
    <path
       style="fill:none;stroke:#000000;stroke-width:1px;stroke-linecap:butt;stroke-linejoin:miter;stroke-opacity:1"
       d="m 536.26473,507.63743 -5.93465,-12.12183 -4.92449,-4.41942 -5.55584,-1.38896 -5.93465,0.50507 -5.05076,3.15673 -3.6618,5.55584 -1.13642,5.55584 -0.12627,5.3033 0.50507,4.79822 2.52539,6.69227 3.28299,3.91434 4.67196,2.0203 5.17703,0.63135 5.68211,-1.38896 4.67195,-3.15673 5.3033,-4.67195 0,-28.78935 0.25254,42.0476 -3.03046,7.07106 -4.16688,4.04062 -5.6821,2.39911 -5.68211,0.12627 -6.9448,-1.01016 -4.92449,-1.76776"
       id="path3185"
       inkscape:connector-curvature="0"
       sodipodi:nodetypes="ccccccccccccccccccccccccc" />
    <path
       style="fill:none;stroke:#000000;stroke-width:1px;stroke-linecap:butt;stroke-linejoin:miter;stroke-opacity:1"
       d="m 582.35294,530.9972 0.25254,-59.47273 -0.12627,31.441 4.41941,-5.42957 5.05077,-5.17703 6.43972,-2.02031 6.69226,0.63135 4.54569,3.283 1.64149,4.16687 1.13643,7.44988 0.12627,25.38008"
       id="path3187"
       inkscape:connector-curvature="0"
       sodipodi:nodetypes="ccccccccccc" />
    <path
       style="fill:none;stroke:#000000;stroke-width:1px;stroke-linecap:butt;stroke-linejoin:miter;stroke-opacity:1"
       d="m 81.822356,631.12857 0,-42.0476 -0.252539,-11.11167 -1.515228,-5.42957 3.030457,5.05076"
       id="path3189"
       inkscape:connector-curvature="0"
       sodipodi:nodetypes="ccccc" />
    <path
       style="fill:none;stroke:#000000;stroke-width:1px;stroke-linecap:butt;stroke-linejoin:miter;stroke-opacity:1"
       d="m 129.55206,588.95471 0.12627,45.96194 -1.26269,4.92449 -2.52538,3.6618 -3.53553,2.14658 -5.80838,-0.25254 m 0,0 13.63706,-68.43784 -1.6415,-4.16688 2.14657,4.79823"
       id="path3191"
       inkscape:connector-curvature="0"
       sodipodi:nodetypes="cccccccccc" />
    <path
       style="fill:none;stroke:#000000;stroke-width:1px;stroke-linecap:butt;stroke-linejoin:miter;stroke-opacity:1"
       d="m 176.42857,630.75504 0.17857,-58.75 0.89286,38.92857 26.60714,-22.14285 -23.03571,19.28571 25.35714,23.21429"
       id="path3193"
       inkscape:connector-curvature="0"
       sodipodi:nodetypes="cccccc" />
    <path
       style="fill:none;stroke:#000000;stroke-width:1px;stroke-linecap:butt;stroke-linejoin:miter;stroke-opacity:1"
       d="m 249.28571,630.04076 0.17857,-58.21429"
       id="path3195"
       inkscape:connector-curvature="0"
       sodipodi:nodetypes="cc" />
    <path
       style="fill:none;stroke:#000000;stroke-width:1px;stroke-linecap:butt;stroke-linejoin:miter;stroke-opacity:1"
       d="m 295.35714,588.61219 0.17857,42.14285 0.53572,-31.25 4.10714,-4.46428 5.89286,-4.10715 5.35714,-1.07142 5.53571,0.71428 4.82143,3.21429 3.39286,5.89285 0,30.17858 0.89286,-29.82143 3.92857,-4.64286 4.46428,-3.92857 6.60715,-1.60714 6.42857,1.07142 3.03571,3.75 2.14286,6.78572 0.71428,29.10714"
       id="path3197"
       inkscape:connector-curvature="0"
       sodipodi:nodetypes="cccccccccccccccccc" />
    <path
       style="fill:none;stroke:#000000;stroke-width:1px;stroke-linecap:butt;stroke-linejoin:miter;stroke-opacity:1"
       d="m 399.82143,588.43361 0,42.32143 0.17857,-30 4.28571,-4.82143 5.17857,-3.75 8.57143,-2.85714 5.53572,1.60714 4.64285,4.46429 1.25,5 0.35715,30.35714"
       id="path3199"
       inkscape:connector-curvature="0"
       sodipodi:nodetypes="cccccccccc" />
    <path
       style="fill:none;stroke:#000000;stroke-width:1px;stroke-linecap:butt;stroke-linejoin:miter;stroke-opacity:1"
       d="m 476.07143,588.5229 0,42.32143 0.17857,-30 4.28571,-4.82143 5.17857,-3.75 8.57143,-2.85714 5.53572,1.60714 4.64285,4.46429 1.25,5 0.35715,30.35714 m 0,0 -30,-54.55357 27.14285,0.35714"
       id="path3199-2"
       inkscape:connector-curvature="0"
       sodipodi:nodetypes="ccccccccccccc" />
    <path
       style="fill:none;stroke:#000000;stroke-width:1px;stroke-linecap:butt;stroke-linejoin:miter;stroke-opacity:1"
       d="m 565.17857,629.86219 -7.67857,-1.42858 -5.17857,-5.89285 -2.14286,-6.25 -1.07143,-7.32143 1.25,-8.03572 3.03571,-5.71428 6.42858,-3.75 7.32142,-1.78572 8.21429,2.32143 3.92857,6.25 2.14286,9.10715 -0.17857,8.21428 -2.85715,7.67857 -4.46428,4.82143 -7.32143,1.96429"
       id="path3219"
       inkscape:connector-curvature="0"
       sodipodi:nodetypes="cccccccccccccccc" />
    <path
       style="fill:none;stroke:#000000;stroke-width:1px;stroke-linecap:butt;stroke-linejoin:miter;stroke-opacity:1"
       d="m 81.785714,746.82647 -0.178572,-58.57143 0,12.32143 4.107143,-4.46429 5.892857,-4.64285 5.357143,-1.07143 5.892855,0.35714 5.35715,2.5 2.5,5 2.32142,8.57143 -0.35714,8.03571 -2.32143,7.85715 -3.92857,4.82143 -5.89286,1.78571 -7.678568,-0.71429 -4.285714,-2.67857 -3.928571,-4.64285 -2.5,-3.75"
       id="path3221"
       inkscape:connector-curvature="0"
       sodipodi:nodetypes="cccccccccccccccccc" />
    <path
       style="fill:none;stroke:#000000;stroke-width:1px;stroke-linecap:butt;stroke-linejoin:miter;stroke-opacity:1"
       d="m 186.60714,747.36219 0.17857,-58.57143 0,12.32143 -4.10714,-4.46429 -5.89286,-4.64285 -5.35714,-1.07143 -5.89286,0.35714 -5.35715,2.5 -2.5,5 -2.32142,8.57143 0.35714,8.03571 2.32143,7.85715 3.92857,4.82143 5.89286,1.78571 7.67857,-0.71429 4.28571,-2.67857 3.92857,-4.64285 2.5,-3.75"
       id="path3221-1"
       inkscape:connector-curvature="0"
       sodipodi:nodetypes="cccccccccccccccccc" />
    <path
       style="fill:none;stroke:#000000;stroke-width:1px;stroke-linecap:butt;stroke-linejoin:miter;stroke-opacity:1"
       d="m 233.75,731.11218 -0.17857,-43.21428 0.17857,13.21428 4.28571,-5.89285 6.78572,-5 6.78571,-0.35715 4.28572,0.71429"
       id="path3241"
       inkscape:connector-curvature="0"
       sodipodi:nodetypes="ccccccc" />
    <path
       style="fill:none;stroke:#000000;stroke-width:1px;stroke-linecap:butt;stroke-linejoin:miter;stroke-opacity:1"
       d="m 316.60714,693.43361 -7.5,-3.21428 -5.71428,-0.35715 -6.78572,0.89286 -5.17857,3.21429 -1.78571,4.28571 0.71428,5.35714 5.35714,4.28572 7.32143,1.78571 6.78572,1.78572 4.82143,4.28571 1.42857,5.71429 -3.03572,5 -6.25,3.57143 -7.85714,0 -5.53571,-1.07143 -6.78572,-2.5"
       id="path3243"
       inkscape:connector-curvature="0"
       sodipodi:nodetypes="ccccccccccccccccc" />
    <path
       style="fill:none;stroke:#000000;stroke-width:1px;stroke-linecap:butt;stroke-linejoin:miter;stroke-opacity:1"
       d="m 359.64285,675.93361 0.17858,42.85715 0.71428,5 2.67857,4.10714 6.42857,1.42857 8.39286,0 m 0,0 -27.14286,-38.57143 26.07143,0.17857"
       id="path3245"
       inkscape:connector-curvature="0"
       sodipodi:nodetypes="ccccccccc" />
    <path
       style="fill:none;stroke:#000000;stroke-width:1px;stroke-linecap:butt;stroke-linejoin:miter;stroke-opacity:1"
       d="m 416.42857,688.43361 1.07143,29.46429 1.42857,5.71428 2.85714,5 5.89286,1.96429 7.85714,-1.60714 5.71429,-5.71429 4.10714,-5 0.17857,-29.28571 0.35714,42.67857"
       id="path3247"
       inkscape:connector-curvature="0"
       sodipodi:nodetypes="cccccccccc" />
    <path
       style="fill:none;stroke:#000000;stroke-width:1px;stroke-linecap:butt;stroke-linejoin:miter;stroke-opacity:1"
       d="m 488.21428,688.43361 17.5,41.42857 17.32143,-41.42857"
       id="path3251"
       inkscape:connector-curvature="0"
       sodipodi:nodetypes="ccc" />
    <path
       style="fill:none;stroke:#000000;stroke-width:1px;stroke-linecap:butt;stroke-linejoin:miter;stroke-opacity:1"
       d="m 561.42857,688.43361 12.14286,41.78572 13.92857,-41.42857 13.03571,41.25 12.5,-41.42858"
       id="path3253"
       inkscape:connector-curvature="0"
       sodipodi:nodetypes="ccccc" />
    <path
       style="fill:none;stroke:#000000;stroke-width:1px;stroke-linecap:butt;stroke-linejoin:miter;stroke-opacity:1"
       d="m 106.78571,790.93361 -33.928568,43.57143 m 0,0 1.428572,-43.21428 32.499996,40.71428"
       id="path3043"
       inkscape:connector-curvature="0"
       sodipodi:nodetypes="ccccc" />
    <path
       style="fill:none;stroke:#000000;stroke-width:1px;stroke-linecap:butt;stroke-linejoin:miter;stroke-opacity:1"
       d="m 149.62884,788.33356 18.18275,41.28999 16.79379,-41.92133 -21.33948,52.78047 -2.77792,4.04061 -2.52538,1.13642 -3.40926,0.50508 -4.29315,-0.37881"
       id="path3257"
       inkscape:connector-curvature="0"
       sodipodi:nodetypes="cccccccc" />
    <path
       style="fill:none;stroke:#000000;stroke-width:1px;stroke-linecap:butt;stroke-linejoin:miter;stroke-opacity:1"
       d="m 220.59206,790.2276 32.57742,0.25254 -30.17831,38.13326 31.18846,0.63134"
       id="path3259"
       inkscape:connector-curvature="0"
       sodipodi:nodetypes="cccc" />
  </g>
</svg>
